<?xml version="1.0" encoding="UTF-8"?>
<svg id="Camada_1" data-name="Camada 1" xmlns="http://www.w3.org/2000/svg" viewBox="60 170 730 486">
  <defs>
    <style>
      .cls-1 {
        fill: #f18d5a;
      }

      .cls-2 {
        fill: #f7e6d4;
      }
    </style>
  </defs>
  <g>
    <path class="cls-2" d="M351.98,626.1l-11.03-27.2h3.48l7.63,19.38,7.67-19.38h3.29l-11.03,27.2Z"/>
    <path class="cls-2" d="M400.68,598.9h2.95l10.32,26.45h-3.33l-2.76-7.14h-11.41l-2.76,7.14h-3.4l10.39-26.45ZM397.62,615.18h9.07l-4.54-11.75-4.53,11.75Z"/>
    <path class="cls-2" d="M446.43,598.9h3.17v23.43h11.86v3.02h-15.04v-26.45Z"/>
    <path class="cls-2" d="M497.13,610.27h11.18v3.02h-11.18v9.03h12.32v3.02h-15.49v-26.45h15.26v3.02h-12.09v8.35Z"/>
  </g>
  <path class="cls-1" d="M783.91,613.95h-218.04c-.8,0-1.46-.65-1.46-1.46s.65-1.46,1.46-1.46h218.04c.8,0,1.46.65,1.46,1.46s-.65,1.46-1.46,1.46Z"/>
  <path class="cls-1" d="M284.52,613.95H66.48c-.8,0-1.46-.65-1.46-1.46s.65-1.46,1.46-1.46h218.04c.8,0,1.46.65,1.46,1.46s-.65,1.46-1.46,1.46Z"/>
  <g>
    <path class="cls-2" d="M172.41,534.41h-69.89v31.82h-17.72v-139.2h17.72v91.41h69.89v-91.41h17.52v139.2h-17.52v-31.82Z"/>
    <path class="cls-2" d="M274.42,560l-2.14-4.48c-1.36,1.36-2.34,2.14-3.5,3.11-7.2,5.65-16.16,8.76-27.45,8.76-24.92,0-39.32-13.04-39.32-33.1s15.38-33.1,40.88-33.1c10.12,0,17.72,1.75,25.11,3.7.58,0,.97.19,1.36.39,0,0,.19-.19.39,0v-4.09c.19-5.65-1.56-13.63-5.06-17.13-4.67-4.67-11.29-7.01-19.86-7.01-15.57,0-25.31,4.87-35.63,12.26l-2.92-13.43c6.23-5.26,20.25-11.88,38.94-11.88,11.88,0,22.78,2.73,29.59,9.15,8.57,7.79,10.9,17.13,10.9,28.81v37.77c0,7.79,1.17,12.27,4.67,13.24,2.34.58,5.06.39,8.18-.78l.97,12.46-10.12,2.34c-6.03,0-11.88-2.34-14.99-7.01ZM269.94,542.09c-.19-.78-.19-6.23-.19-7.2l.19-17.91c-8.37-2.34-18.49-4.09-26.87-4.09-18.69,0-25.5,9.34-25.5,20.83s6.03,20.64,24.14,20.64c7.59,0,14.41-1.75,20.25-5.45,2.34-1.56,5.26-3.7,7.98-6.81Z"/>
    <path class="cls-2" d="M352.68,479.6c-10.71,0-20.05,9.35-29.79,20.44l.19-.2v66.39h-16.16v-100.46h16.16v14.99c8.37-8.57,18.69-16.55,30.37-16.55,5.84,0,9.54.97,12.07,2.73l-1.95,18.11c-3.12-3.31-7.2-5.45-10.9-5.45Z"/>
    <path class="cls-2" d="M511.34,508.21c0-20.83-7.59-29.01-21.81-29.01-9.54,0-20.64,8.57-30.37,17.33.39,2.34.58,5.26.58,8.18v61.52h-15.77v-58.02c0-20.83-7.79-29.01-22-29.01-9.34,0-20.64,8.96-30.18,17.91v69.11h-15.96v-100.46h15.96v13.63c8.37-7.59,18.69-15.19,30.76-15.19s26.09,4.87,32.9,18.69c8.76-8.96,21.8-18.69,34.46-18.69,20.25,0,37.38,11.1,37.38,40.49v61.52h-15.96v-58.02Z"/>
    <path class="cls-2" d="M585.51,567.79c-26.67,0-47.11-18.11-47.11-51.4s20.44-52.17,47.11-52.17,46.92,18.88,46.92,52.17-20.44,51.4-46.92,51.4ZM585.51,479.4c-19.47,0-31.15,16.74-31.15,36.79s11.68,36.21,31.15,36.21,30.95-16.35,30.95-36.21-11.29-36.79-30.95-36.79Z"/>
    <path class="cls-2" d="M713.03,508.21c0-21.22-8.56-29.01-22.97-29.01-10.71,0-21.8,9.15-31.93,18.5v68.53h-15.77v-100.46h15.77v14.02c8.37-7.4,19.66-15.57,32.32-15.57,20.44,0,38.16,10.51,38.16,40.49v61.52h-15.57v-58.02Z"/>
    <rect class="cls-2" x="749.62" y="465.77" width="15.97" height="100.46"/>
  </g>
  <g>
    <path class="cls-1" d="M238.72,424.43s-1.51-1.91-4.48-1.91c-3.53,0-5.95,3.09-5.95,6.55s2.42,6.55,5.95,6.55c2.95,0,4.69-2.16,4.69-2.16l1.32,1.35s-2.21,2.67-6.02,2.67c-4.69,0-8.04-3.72-8.04-8.41s3.34-8.41,8.04-8.41c3.81,0,5.83,2.49,5.83,2.49l-1.35,1.28Z"/>
    <path class="cls-1" d="M264.64,429.08c0,4.69-3.34,8.41-8.04,8.41s-8.04-3.72-8.04-8.41,3.34-8.41,8.04-8.41,8.04,3.72,8.04,8.41ZM262.55,429.08c0-3.46-2.39-6.55-5.95-6.55s-5.95,3.09-5.95,6.55,2.39,6.55,5.95,6.55,5.95-3.09,5.95-6.55Z"/>
    <path class="cls-1" d="M276.42,420.95l8.71,13.01v-13.01h1.95v16.26h-2.02l-8.71-13.01v13.01h-1.95v-16.26h2.02Z"/>
    <path class="cls-1" d="M310.56,429.08c0,4.69-3,8.13-8.04,8.13h-4.67v-16.26h4.67c5.04,0,8.04,3.44,8.04,8.13ZM308.47,429.08c0-3.46-2.09-6.27-6.06-6.27h-2.6v12.54h2.6c3.97,0,6.06-2.81,6.06-6.27Z"/>
    <path class="cls-1" d="M335.37,429.08c0,4.69-3.34,8.41-8.04,8.41s-8.04-3.72-8.04-8.41,3.34-8.41,8.04-8.41,8.04,3.72,8.04,8.41ZM333.27,429.08c0-3.46-2.39-6.55-5.95-6.55s-5.95,3.09-5.95,6.55,2.39,6.55,5.95,6.55,5.95-3.09,5.95-6.55Z"/>
    <path class="cls-1" d="M347.07,420.95l5.6,9.08,5.57-9.08h1.88v16.26h-1.95v-12.73l-5.55,9.04-5.55-9.01v12.71h-1.95v-16.26h1.95Z"/>
    <path class="cls-1" d="M374.95,416.61l-3.51,3.34-1.16-1.09,3.46-3.46,1.21,1.21ZM371.23,420.95h1.95v16.26h-1.95v-16.26Z"/>
    <path class="cls-1" d="M386.3,420.95l8.71,13.01v-13.01h1.95v16.26h-2.02l-8.71-13.01v13.01h-1.95v-16.26h2.02Z"/>
    <path class="cls-1" d="M408.07,420.95h1.95v16.26h-1.95v-16.26Z"/>
    <path class="cls-1" d="M436.17,429.08c0,4.69-3.34,8.41-8.04,8.41s-8.04-3.72-8.04-8.41,3.34-8.41,8.04-8.41,8.04,3.72,8.04,8.41ZM434.08,429.08c0-3.46-2.39-6.55-5.95-6.55s-5.95,3.09-5.95,6.55,2.39,6.55,5.95,6.55,5.95-3.09,5.95-6.55Z"/>
    <path class="cls-1" d="M469.5,420.95h1.95v16.26h-1.95v-7.41h-8.15v7.41h-1.95v-16.26h1.95v6.99h8.15v-6.99Z"/>
    <path class="cls-1" d="M497.28,429.08c0,4.69-3.34,8.41-8.04,8.41s-8.04-3.72-8.04-8.41,3.34-8.41,8.04-8.41,8.04,3.72,8.04,8.41ZM495.19,429.08c0-3.46-2.39-6.55-5.95-6.55s-5.95,3.09-5.95,6.55,2.39,6.55,5.95,6.55,5.95-3.09,5.95-6.55Z"/>
    <path class="cls-1" d="M507.04,420.95h4.23c3.23,0,5.44,1.9,5.44,4.81,0,3.86-3.51,4.58-3.97,4.64l4.51,6.81h-2.35l-4.39-6.64h-1.51v6.64h-1.95v-16.26ZM514.75,425.76c0-1.79-1.19-2.95-3.37-2.95h-2.39v5.9h2.39c2.18,0,3.37-1.16,3.37-2.95Z"/>
    <path class="cls-1" d="M527.17,420.95h1.95v16.26h-1.95v-16.26Z"/>
    <path class="cls-1" d="M551.19,420.95l-9.13,14.4h8.69v1.86h-12.01l9.13-14.4h-8.5v-1.86h11.82Z"/>
    <path class="cls-1" d="M575.53,429.08c0,4.69-3.34,8.41-8.04,8.41s-8.04-3.72-8.04-8.41,3.34-8.41,8.04-8.41,8.04,3.72,8.04,8.41ZM573.44,429.08c0-3.46-2.39-6.55-5.95-6.55s-5.95,3.09-5.95,6.55,2.39,6.55,5.95,6.55,5.95-3.09,5.95-6.55Z"/>
    <path class="cls-1" d="M587.31,420.95l8.71,13.01v-13.01h1.95v16.26h-2.02l-8.71-13.01v13.01h-1.95v-16.26h2.02Z"/>
    <path class="cls-1" d="M611.84,422.81h-4.67v-1.86h11.29v1.86h-4.67v14.4h-1.95v-14.4Z"/>
    <path class="cls-1" d="M631.51,420.95h1.81l6.34,16.26h-2.04l-1.69-4.39h-7.02l-1.7,4.39h-2.09l6.39-16.26ZM629.63,430.96h5.57l-2.79-7.22-2.79,7.22Z"/>
    <path class="cls-1" d="M648.72,420.95h1.95v14.4h7.29v1.86h-9.24v-16.26Z"/>
  </g>
  <g>
    <path class="cls-1" d="M562.47,244.23l-57.15-57.15h-51l-63.26,61.93h-69.85l-10.66,10.66h84.85l63.26-61.93h42.23l54.03,54.03c3.51,3.51,5.45,8.18,5.45,13.15v22.05l10.65-6.03v-16.03c0-7.81-3.04-15.16-8.57-20.69Z"/>
    <path class="cls-1" d="M540.31,268.66l-38.9-38.9c-3.9-3.9-9.08-6.04-14.59-6.04h-15.33c-5.51,0-10.69,2.15-14.59,6.04l-39.03,39.03v62.14h-22.64v-49.28h-72.71l-7.86,10.65h69.91v49.28s0,0,0,0h43.95v-68.38l35.91-35.91c1.89-1.88,4.39-2.92,7.06-2.92h15.33c2.66,0,5.17,1.04,7.06,2.92l35.78,35.78v83.16h18.74l9.94-10.65h-18.03v-76.92Z"/>
    <polygon class="cls-1" points="290.01 345.57 290.01 268.66 290.01 257.22 349.49 197.74 372.56 197.74 383.21 187.08 345.08 187.08 279.36 252.8 279.36 273.07 279.36 336.18 279.36 356.23 294.1 356.23 298.1 356.23 307.31 346.36 308.04 345.57 296.01 345.57 290.01 345.57"/>
  </g>
  <g>
    <path class="cls-2" d="M368.49,658.38h3.15v3.71s-1.14,1.12-3.36,1.12c-2.47,0-4.25-1.95-4.25-4.42s1.78-4.42,4.25-4.42c2.21,0,3.13,1.21,3.13,1.21l-.73.72s-.82-.95-2.39-.95c-1.86,0-3.15,1.63-3.15,3.45s1.29,3.44,3.15,3.44c1.56,0,2.35-.62,2.35-.62v-2.26h-2.14v-.98Z"/>
    <path class="cls-2" d="M377.13,654.52h2.22c1.7,0,2.86,1,2.86,2.53,0,2.03-1.84,2.41-2.09,2.44l2.37,3.58h-1.23l-2.31-3.49h-.79v3.49h-1.03v-8.55ZM381.18,657.04c0-.94-.62-1.55-1.77-1.55h-1.26v3.1h1.26c1.15,0,1.77-.61,1.77-1.55Z"/>
    <path class="cls-2" d="M390.14,654.52h.95l3.33,8.55h-1.08l-.89-2.31h-3.69l-.89,2.31h-1.1l3.36-8.55ZM389.15,659.78h2.93l-1.47-3.8-1.47,3.8Z"/>
    <path class="cls-2" d="M401.2,663.31l-3.57-8.79h1.12l2.47,6.27,2.48-6.27h1.06l-3.57,8.79Z"/>
    <path class="cls-2" d="M411.33,654.52h.95l3.33,8.55h-1.08l-.89-2.31h-3.69l-.89,2.31h-1.1l3.36-8.55ZM410.34,659.78h2.93l-1.47-3.8-1.47,3.8Z"/>
    <path class="cls-2" d="M421.71,655.49h-2.46v-.98h5.94v.98h-2.46v7.57h-1.03v-7.57Z"/>
    <path class="cls-2" d="M432.19,654.52h.95l3.33,8.55h-1.08l-.89-2.31h-3.69l-.89,2.31h-1.1l3.36-8.55ZM431.2,659.78h2.93l-1.47-3.8-1.47,3.8Z"/>
    <path class="cls-2" d="M443.5,652.23l-1.84,1.76-.61-.57,1.82-1.82.64.64ZM441.54,654.52h1.03v8.55h-1.03v-8.55Z"/>
    <path class="cls-2" d="M455.15,659.6h3.26v.98h-3.26v-.98Z"/>
    <path class="cls-2" d="M470.82,654.52h2.22c1.7,0,2.86,1,2.86,2.53,0,2.03-1.84,2.41-2.09,2.44l2.37,3.58h-1.23l-2.31-3.49h-.79v3.49h-1.03v-8.55ZM474.88,657.04c0-.94-.62-1.55-1.77-1.55h-1.26v3.1h1.26c1.15,0,1.77-.61,1.77-1.55Z"/>
    <path class="cls-2" d="M483.64,659.22c-1.25-.57-2.35-1.15-2.35-2.6,0-1,.83-2.25,2.47-2.25s2.43,1.25,2.43,1.25l-.77.62s-.6-.89-1.66-.89c-.94,0-1.44.66-1.44,1.27,0,.87.73,1.21,1.91,1.75,1.31.6,2.13,1.15,2.13,2.53s-1.15,2.32-2.65,2.32c-2.03,0-2.72-1.78-2.72-1.78l.85-.51s.51,1.32,1.87,1.32c.82,0,1.6-.46,1.6-1.34s-.71-1.23-1.66-1.67Z"/>
  </g>
</svg>