<svg xmlns="http://www.w3.org/2000/svg" width="142" height="212" viewBox="0 0 142 212" fill="none"><path d="M105.929 57.5448C110.438 56.7392 114.417 53.6837 116.096 49.0886C117.638 44.8778 116.891 40.4072 114.494 36.994C120.796 26.1104 130.22 17.4105 141.863 12.0204L136.266 0C122.254 6.48455 110.316 17.323 102.455 31.3892C97.4571 31.8212 92.9271 35.033 91.097 40.0256C89.4186 44.6234 90.4985 49.5099 93.4298 53.0132L80.5235 88.3351H0V101.58L13.3 105.997L19.95 132.497L24.3842 212H99.7527L104.184 132.497L110.834 105.997L124.134 101.58V88.3351H94.688L105.929 57.5448ZM86.9767 128.22L82.976 194.332H41.1529L37.6576 131.514L31.5316 105.997H92.552L86.9767 128.22Z" fill="#A17353"></path></svg>