<svg width="84" height="65" viewBox="0 0 84 65" fill="none" xmlns="http://www.w3.org/2000/svg">
<g clip-path="url(#clip0_1076_291)">
<path d="M83.1779 21.5215C83.0331 21.1095 82.6793 20.8064 82.2499 20.7266L27.1486 10.4904C25.0745 10.1055 23.0735 11.4791 22.688 13.5532L20.7835 23.8048C20.3982 25.879 21.7722 27.88 23.8464 28.2655L23.929 28.2807L23.6757 29.6447C23.2904 31.7189 24.6644 33.7199 26.7388 34.1054L28.6739 34.4649V39.514C27.864 40.4213 27.3706 41.6166 27.3706 42.9257C27.3706 43.9118 27.6511 44.8335 28.1352 45.6162H7.65219V45.5323C7.65219 43.4225 5.93571 41.7062 3.82609 41.7062H1.21943C0.545981 41.7062 0 42.2522 0 42.9257V63.7793C0 64.4527 0.545981 64.9987 1.21943 64.9987H3.82609C5.93587 64.9987 7.65219 63.2822 7.65219 61.1726V55.8752H27.2864C30.8334 55.8752 33.7191 52.9894 33.7191 49.4423V47.9074C35.9606 47.3587 37.6291 45.3338 37.6291 42.9257C37.6291 41.6166 37.1356 40.4213 36.3258 39.514V35.8866L72.8697 42.6754C73.105 42.7192 73.3391 42.7401 73.5702 42.7401C75.3769 42.7401 76.9887 41.4514 77.3303 39.6124L79.7867 26.3898L82.9502 22.7222C83.2357 22.3914 83.3224 21.9335 83.1779 21.5215ZM5.21332 61.1723C5.21332 61.9373 4.59092 62.5595 3.82609 62.5595H2.43887V44.1448H3.82609C4.59108 44.1448 5.21332 44.7672 5.21332 45.532V61.1723ZM31.2804 49.4421C31.2804 51.6444 29.4887 53.4362 27.2865 53.4362H7.65219V48.0549H31.2804V49.4421ZM32.4998 45.6159C31.0162 45.6159 29.8093 44.409 29.8093 42.9253C29.8093 41.4417 31.0162 40.2348 32.4998 40.2348C33.9835 40.2348 35.1904 41.4417 35.1904 42.9253C35.1904 44.409 33.9835 45.6159 32.4998 45.6159ZM31.1126 37.9881V34.9177L33.8871 35.4331V37.9879C33.4455 37.8637 32.9806 37.7957 32.4998 37.7957C32.0191 37.7957 31.5542 37.8637 31.1126 37.9881ZM70.744 33.1393C70.1215 33.861 69.1524 34.2012 68.2152 34.027L34.5434 27.7718C33.8815 27.6491 33.2448 28.086 33.1218 28.748C32.9988 29.4101 33.4359 30.0466 34.0979 30.1697L67.7696 36.4249C68.079 36.4825 68.39 36.5105 68.6994 36.5105C70.1763 36.5105 71.6092 35.87 72.5907 34.7322L76.6253 30.0549L74.9325 39.1667C74.7929 39.9187 74.0672 40.417 73.3152 40.2772L27.1839 31.7074C26.8196 31.6397 26.5035 31.4342 26.2937 31.1287C26.084 30.8232 26.0058 30.4543 26.0734 30.0901L26.3267 28.7262L28.9723 29.2178C29.6351 29.3408 30.2709 28.9038 30.394 28.2416C30.5169 27.5793 30.0798 26.9429 29.4178 26.8199L24.2919 25.8676C23.9276 25.7999 23.6115 25.5944 23.4017 25.2889C23.192 24.9834 23.1138 24.6146 23.1814 24.2503L25.0859 13.9987C25.1535 13.6345 25.359 13.3183 25.6645 13.1086C25.9699 12.8987 26.3386 12.8205 26.7031 12.8883L79.7171 22.7367L70.744 33.1393Z" fill="#184730"/>
<path d="M25.9849 5.21484C21.0005 5.21484 16.9453 9.27002 16.9453 14.2545C16.9453 14.9279 17.4913 15.4739 18.1648 15.4739C18.8382 15.4739 19.3842 14.9279 19.3842 14.2545C19.3842 10.6149 22.3453 7.6537 25.9849 7.6537C26.6584 7.6537 27.2044 7.10772 27.2044 6.43427C27.2044 5.76082 26.6584 5.21484 25.9849 5.21484Z" fill="#184730"/>
<path d="M12.9499 15.4725C13.6234 15.4725 14.1693 14.9265 14.1693 14.2531C14.1693 7.73868 19.4692 2.43887 25.9835 2.43887C26.657 2.43887 27.203 1.89289 27.203 1.21943C27.203 0.545981 26.657 0 25.9835 0C18.1244 0 11.7305 6.39389 11.7305 14.2531C11.7305 14.9265 12.2765 15.4725 12.9499 15.4725Z" fill="#184730"/>
</g>
<defs>
<clipPath id="clip0_1076_291">
<rect width="84" height="65" fill="white"/>
</clipPath>
</defs>
</svg>
